<mxfile host="app.diagrams.net" agent="Mozilla/5.0 (Windows NT 10.0; Win64; x64) AppleWebKit/537.36 (KHTML, like Gecko) Chrome/136.0.0.0 Safari/537.36" version="26.2.14">
  <diagram name="Page-1" id="dj0obJIuYBGl0tymBPOW">
    <mxGraphModel dx="1489" dy="803" grid="1" gridSize="10" guides="1" tooltips="1" connect="1" arrows="1" fold="1" page="1" pageScale="1" pageWidth="827" pageHeight="1169" math="0" shadow="0">
      <root>
        <mxCell id="0" />
        <mxCell id="1" parent="0" />
        <mxCell id="Qg3bEZur4HEPPLPGAAkw-19" style="edgeStyle=orthogonalEdgeStyle;rounded=0;orthogonalLoop=1;jettySize=auto;html=1;entryX=0.5;entryY=0;entryDx=0;entryDy=0;" edge="1" parent="1" source="Qg3bEZur4HEPPLPGAAkw-1" target="Qg3bEZur4HEPPLPGAAkw-5">
          <mxGeometry relative="1" as="geometry" />
        </mxCell>
        <mxCell id="Qg3bEZur4HEPPLPGAAkw-1" value="start" style="rounded=1;whiteSpace=wrap;html=1;" vertex="1" parent="1">
          <mxGeometry x="360" y="40" width="120" height="40" as="geometry" />
        </mxCell>
        <mxCell id="Qg3bEZur4HEPPLPGAAkw-20" style="edgeStyle=orthogonalEdgeStyle;rounded=0;orthogonalLoop=1;jettySize=auto;html=1;entryX=0.5;entryY=0;entryDx=0;entryDy=0;" edge="1" parent="1" source="Qg3bEZur4HEPPLPGAAkw-5" target="Qg3bEZur4HEPPLPGAAkw-7">
          <mxGeometry relative="1" as="geometry" />
        </mxCell>
        <mxCell id="Qg3bEZur4HEPPLPGAAkw-5" value="browse product" style="rounded=1;whiteSpace=wrap;html=1;" vertex="1" parent="1">
          <mxGeometry x="360" y="120" width="120" height="40" as="geometry" />
        </mxCell>
        <mxCell id="Qg3bEZur4HEPPLPGAAkw-21" style="edgeStyle=orthogonalEdgeStyle;rounded=0;orthogonalLoop=1;jettySize=auto;html=1;entryX=0.5;entryY=0;entryDx=0;entryDy=0;" edge="1" parent="1" source="Qg3bEZur4HEPPLPGAAkw-7" target="Qg3bEZur4HEPPLPGAAkw-8">
          <mxGeometry relative="1" as="geometry" />
        </mxCell>
        <mxCell id="Qg3bEZur4HEPPLPGAAkw-7" value="add to cart" style="rounded=1;whiteSpace=wrap;html=1;" vertex="1" parent="1">
          <mxGeometry x="360" y="200" width="120" height="40" as="geometry" />
        </mxCell>
        <mxCell id="Qg3bEZur4HEPPLPGAAkw-22" style="edgeStyle=orthogonalEdgeStyle;rounded=0;orthogonalLoop=1;jettySize=auto;html=1;entryX=0.5;entryY=0;entryDx=0;entryDy=0;" edge="1" parent="1" source="Qg3bEZur4HEPPLPGAAkw-8" target="Qg3bEZur4HEPPLPGAAkw-9">
          <mxGeometry relative="1" as="geometry" />
        </mxCell>
        <mxCell id="Qg3bEZur4HEPPLPGAAkw-8" value="checkout" style="rounded=1;whiteSpace=wrap;html=1;" vertex="1" parent="1">
          <mxGeometry x="360" y="280" width="120" height="40" as="geometry" />
        </mxCell>
        <mxCell id="Qg3bEZur4HEPPLPGAAkw-23" style="edgeStyle=orthogonalEdgeStyle;rounded=0;orthogonalLoop=1;jettySize=auto;html=1;exitX=0.5;exitY=1;exitDx=0;exitDy=0;entryX=0.518;entryY=0.028;entryDx=0;entryDy=0;entryPerimeter=0;" edge="1" parent="1" source="Qg3bEZur4HEPPLPGAAkw-9" target="Qg3bEZur4HEPPLPGAAkw-10">
          <mxGeometry relative="1" as="geometry">
            <mxPoint x="420.3809523809523" y="420" as="targetPoint" />
          </mxGeometry>
        </mxCell>
        <mxCell id="Qg3bEZur4HEPPLPGAAkw-9" value="payment info" style="rounded=1;whiteSpace=wrap;html=1;" vertex="1" parent="1">
          <mxGeometry x="360" y="360" width="120" height="40" as="geometry" />
        </mxCell>
        <mxCell id="Qg3bEZur4HEPPLPGAAkw-26" style="edgeStyle=orthogonalEdgeStyle;rounded=0;orthogonalLoop=1;jettySize=auto;html=1;entryX=0.5;entryY=0;entryDx=0;entryDy=0;" edge="1" parent="1" source="Qg3bEZur4HEPPLPGAAkw-10" target="Qg3bEZur4HEPPLPGAAkw-14">
          <mxGeometry relative="1" as="geometry" />
        </mxCell>
        <mxCell id="Qg3bEZur4HEPPLPGAAkw-10" value="success" style="rounded=1;whiteSpace=wrap;html=1;" vertex="1" parent="1">
          <mxGeometry x="280" y="440" width="120" height="40" as="geometry" />
        </mxCell>
        <mxCell id="Qg3bEZur4HEPPLPGAAkw-25" style="edgeStyle=orthogonalEdgeStyle;rounded=0;orthogonalLoop=1;jettySize=auto;html=1;entryX=0.5;entryY=0;entryDx=0;entryDy=0;" edge="1" parent="1" source="Qg3bEZur4HEPPLPGAAkw-11" target="Qg3bEZur4HEPPLPGAAkw-12">
          <mxGeometry relative="1" as="geometry" />
        </mxCell>
        <mxCell id="Qg3bEZur4HEPPLPGAAkw-11" value="fail" style="rounded=1;whiteSpace=wrap;html=1;" vertex="1" parent="1">
          <mxGeometry x="440" y="440" width="120" height="40" as="geometry" />
        </mxCell>
        <mxCell id="Qg3bEZur4HEPPLPGAAkw-29" style="edgeStyle=orthogonalEdgeStyle;rounded=0;orthogonalLoop=1;jettySize=auto;html=1;entryX=0.5;entryY=0;entryDx=0;entryDy=0;" edge="1" parent="1" source="Qg3bEZur4HEPPLPGAAkw-12" target="Qg3bEZur4HEPPLPGAAkw-13">
          <mxGeometry relative="1" as="geometry" />
        </mxCell>
        <mxCell id="Qg3bEZur4HEPPLPGAAkw-12" value="show error" style="rounded=1;whiteSpace=wrap;html=1;" vertex="1" parent="1">
          <mxGeometry x="440" y="520" width="120" height="40" as="geometry" />
        </mxCell>
        <mxCell id="Qg3bEZur4HEPPLPGAAkw-13" value="end&lt;span style=&quot;color: rgba(0, 0, 0, 0); font-family: monospace; font-size: 0px; text-align: start; text-wrap-mode: nowrap;&quot;&gt;%3CmxGraphModel%3E%3Croot%3E%3CmxCell%20id%3D%220%22%2F%3E%3CmxCell%20id%3D%221%22%20parent%3D%220%22%2F%3E%3CmxCell%20id%3D%222%22%20value%3D%22start%22%20style%3D%22rounded%3D1%3BwhiteSpace%3Dwrap%3Bhtml%3D1%3B%22%20vertex%3D%221%22%20parent%3D%221%22%3E%3CmxGeometry%20x%3D%22280%22%20y%3D%22440%22%20width%3D%22120%22%20height%3D%2240%22%20as%3D%22geometry%22%2F%3E%3C%2FmxCell%3E%3C%2Froot%3E%3C%2FmxGraphModel%3E&lt;/span&gt;" style="rounded=1;whiteSpace=wrap;html=1;" vertex="1" parent="1">
          <mxGeometry x="440" y="600" width="120" height="40" as="geometry" />
        </mxCell>
        <mxCell id="Qg3bEZur4HEPPLPGAAkw-27" style="edgeStyle=orthogonalEdgeStyle;rounded=0;orthogonalLoop=1;jettySize=auto;html=1;entryX=0.5;entryY=0;entryDx=0;entryDy=0;" edge="1" parent="1" source="Qg3bEZur4HEPPLPGAAkw-14" target="Qg3bEZur4HEPPLPGAAkw-15">
          <mxGeometry relative="1" as="geometry" />
        </mxCell>
        <mxCell id="Qg3bEZur4HEPPLPGAAkw-14" value="create order" style="rounded=1;whiteSpace=wrap;html=1;" vertex="1" parent="1">
          <mxGeometry x="280" y="520" width="120" height="40" as="geometry" />
        </mxCell>
        <mxCell id="Qg3bEZur4HEPPLPGAAkw-30" style="edgeStyle=orthogonalEdgeStyle;rounded=0;orthogonalLoop=1;jettySize=auto;html=1;entryX=0.5;entryY=0;entryDx=0;entryDy=0;" edge="1" parent="1" source="Qg3bEZur4HEPPLPGAAkw-15" target="Qg3bEZur4HEPPLPGAAkw-16">
          <mxGeometry relative="1" as="geometry" />
        </mxCell>
        <mxCell id="Qg3bEZur4HEPPLPGAAkw-15" value="dispatch" style="rounded=1;whiteSpace=wrap;html=1;" vertex="1" parent="1">
          <mxGeometry x="280" y="600" width="120" height="40" as="geometry" />
        </mxCell>
        <mxCell id="Qg3bEZur4HEPPLPGAAkw-31" style="edgeStyle=orthogonalEdgeStyle;rounded=0;orthogonalLoop=1;jettySize=auto;html=1;entryX=0.5;entryY=0;entryDx=0;entryDy=0;" edge="1" parent="1" source="Qg3bEZur4HEPPLPGAAkw-16" target="Qg3bEZur4HEPPLPGAAkw-17">
          <mxGeometry relative="1" as="geometry" />
        </mxCell>
        <mxCell id="Qg3bEZur4HEPPLPGAAkw-16" value="track order" style="rounded=1;whiteSpace=wrap;html=1;" vertex="1" parent="1">
          <mxGeometry x="280" y="680" width="120" height="40" as="geometry" />
        </mxCell>
        <mxCell id="Qg3bEZur4HEPPLPGAAkw-32" style="edgeStyle=orthogonalEdgeStyle;rounded=0;orthogonalLoop=1;jettySize=auto;html=1;entryX=0.5;entryY=0;entryDx=0;entryDy=0;" edge="1" parent="1" source="Qg3bEZur4HEPPLPGAAkw-17" target="Qg3bEZur4HEPPLPGAAkw-18">
          <mxGeometry relative="1" as="geometry" />
        </mxCell>
        <mxCell id="Qg3bEZur4HEPPLPGAAkw-17" value="delivery confirmed" style="rounded=1;whiteSpace=wrap;html=1;" vertex="1" parent="1">
          <mxGeometry x="280" y="760" width="120" height="40" as="geometry" />
        </mxCell>
        <mxCell id="Qg3bEZur4HEPPLPGAAkw-18" value="end" style="rounded=1;whiteSpace=wrap;html=1;" vertex="1" parent="1">
          <mxGeometry x="280" y="840" width="120" height="40" as="geometry" />
        </mxCell>
        <mxCell id="Qg3bEZur4HEPPLPGAAkw-24" value="" style="endArrow=classic;html=1;rounded=0;entryX=0.498;entryY=-0.067;entryDx=0;entryDy=0;entryPerimeter=0;" edge="1" parent="1" target="Qg3bEZur4HEPPLPGAAkw-11">
          <mxGeometry width="50" height="50" relative="1" as="geometry">
            <mxPoint x="420" y="420" as="sourcePoint" />
            <mxPoint x="470" y="370" as="targetPoint" />
            <Array as="points">
              <mxPoint x="500" y="420" />
            </Array>
          </mxGeometry>
        </mxCell>
      </root>
    </mxGraphModel>
  </diagram>
</mxfile>
